<?xml version="1.0" encoding="UTF-8"?>
<svg version="1.1" viewBox="0 0 2000 2000" width="500" height="500" xmlns="http://www.w3.org/2000/svg">
<path transform="translate(1043,647)" d="m0 0h64l47 1 1 221 107 1 4 1v113l61-1 28-2 23-4 27-8 19-8 12-7-5-10-8-15-6-17-5-22-2-20 1-23 2-15 5-20 8-19 9-14 9-11 5-6 4 1 11 9 13 11 7 6v2l4 2 7 8 11 14 10 16 10 21 6 19 3 12 35-5h27l18 2 21 5 16 6 16 8 10 6 1 2-13 25-10 14-18 18-14 10-23 12-26 8-22 4-8 1-24 1h-11l-6 12-13 29-16 31h42l16-2 19-5 16-6 15-8 11-9 3-4h2l2 13 5 9 10 8 13 6 21 7 18 5v1l-203 1-7 11-18 27-10 13-11 14-12 14-7 7-7 8-22 22-8 7-10 9-13 10-17 13-23 16-18 11-26 14-22 11-30 13-33 12-35 10-26 6-31 6-41 6-31 3-15 1-38 1h-28l-28-1-31-4-25-5-31-9-28-10-23-10-23-13-17-11-17-13-14-12-8-7-9-8-7-8-13-15-13-18-12-19-11-20-11-27-6-19-5-21-3-15-150-1 2-2 24-6 20-7 10-6 9-8 4-8 2-11 4 2 7 7 15 9 23 9 19 5 9 1-1-3-1-23v-13l1-28 2-19 1-1h94v-112l1-3h111v-110l1-1h222v-110l1-1z" fill="#38535B"/>
<path transform="translate(615,1087)" d="m0 0h823l3 1-1 5-11 16-12 16-10 13-12 14-9 10-7 8-21 21-8 7-11 10-14 11-15 11-21 14-13 8-21 12-32 16-28 12-27 10-26 8-36 9-32 6-46 6-30 3-13 1h-67l-31-3-33-5-26-6-23-7-29-12-28-14-20-12-16-12-13-11-13-12-5-7-5-4v-2l84-1 49-5 27-4 20-4 7-3 8-3v-10l-2-3-8 1-28 6-15 3-21 3-35 3h-83l-15-1-5-5-8-11-14-24-9-21-7-18-8-28-2-10v-5z" fill="#0F96C3"/>
<path transform="translate(1452,787)" d="m0 0 5 2 8 8 8 7v2h2l7 8 10 12 8 13 10 21 6 19 2 17v15l31-9 14-3 8-1h34l14 2 21 7 13 6 1 3-7 11-9 11-11 11-13 9-14 8-15 6-14 4-24 4-13 1h-37l-3 9-11 25-14 29-11 22-4 4-16-4-19-7-18-9-1 3-11 8-11 5-19 6-24 4-28 2h-13l-32-2-26-3-25-5-21-7-16-8-10-7-3-4-8 8-18 11-20 8-11 3-19 3-12 1h-37l-17-2-20-4-16-6-16-8-11-8-7-6v2l-10 8-16 8-20 7-24 5-27 3-14 1h-59l-21-3-17-4-19-8-9-7-3-3-6 2-14 7-25 8-18 4-13 1h-25l-2-6v-63l1-1 718-1 19-1 28-4 24-6 17-6 25-11 21-13 3-2-1-4-8-8-8-12-7-14-6-18-4-25v-27l3-19 5-17 8-18z" fill="#19B4EA"/>
<path transform="translate(615,1087)" d="m0 0h823l3 1-1 5-11 16-12 16-10 13-12 14-9 10-7 8-21 21-8 7-11 10-14 11-15 11-21 14-13 8-21 12-32 16-28 12-27 10-26 8-36 9-32 6-46 6-30 3-13 1h-67l-31-3-33-5-26-6-3-2 8 1 35 7 33 4 27 2h41l-4-4-19-11-16-11-12-9-10-9-8-7-10-11-10-13-3-5 1-3 5 6 6 2h35l34-3 33-4 31-5 18-5 26-7 13-5 29-10 27-11 10-4 16-8 10-4 14-7 19-9 15-8 10-6 9-5 7-5 6-3h2v-2l6-3 14-9 13-8h2v-2l14-8 10-7 24-15 2-1 1-5h-493l-186 1-1 5 6 16 8 16 6 10 4 7 5 9 6 9 3 6 11 13 7 8 6 5 4 4 9 5v2h10v2h25l28-2 5-1 2-2h21l1-4h12l26-5h6v3l-5-1-32 7-15 3-21 3-35 3h-83l-15-1-5-5-8-11-14-24-9-21-7-18-8-28-2-10v-5z" fill="#0F87AF"/>
<path transform="translate(845,1216)" d="m0 0h11l13 24 15 22 11 13 11 12 8 7 13 10 24 16 17 10 2 3-1 1h-41l-37-3-28-4-34-7-11-2-21-7-25-11-24-12-20-12-16-12-13-11-13-12-5-7-5-4v-2l84-1 49-5 27-4z" fill="#C1D9E1"/>
<path transform="translate(1452,787)" d="m0 0 5 2 8 8 8 7v2h2l7 8 10 12 8 13 10 21 6 19 2 17v15l31-9 14-3 8-1h34l14 2 21 7 13 6 1 3-7 11-9 11-11 11-13 9-14 8-15 6-14 4-24 4-13 1h-37l-3 9-11 25-14 29-11 22-4 4-16-4-19-7-18-9-1 3-11 8-11 5-19 6-24 4-28 2h-13l-32-2-8-1v-1h67l27-3 13-3 10-4 7-4 3-3h2l2-4 4-4h2v-2l8-6h2l2-4 3-1 5-5 14-12 11-11h2l1-2 6-4 3-6 6-8h2l2-4 7-7 7-8 6-8 8-7 8-10h2l2-4 4-5h2l2-5 3-1 2-5 4-7-2-18-1-16-4-21-2-7h-2l-2-7-3-3-9-16-9-10-1-5-4-1-7-8-13-13-1-2-5 1z" fill="#14A2D2"/>
<path transform="translate(1046,888)" d="m0 0h89l2 3v80l-1 14-2 1h-94l-1-1v-96z" fill="#17ACDF"/>
<path transform="translate(825,888)" d="m0 0h50l38 1v96l-2 1h-94l-1-1v-96z" fill="#17ADE0"/>
<path transform="translate(1041,665)" d="m0 0 95 1v97l-38 1h-39l-20-1v-97z" fill="#18AFE4"/>
<path transform="translate(930,888)" d="m0 0h84l10 1 1 40v55l-6 2h-85l-7-2 1-95z" fill="#139DCC"/>
<path transform="translate(1040,776)" d="m0 0h96v98h-96l-1-1v-96z" fill="#0F92BE"/>
<path transform="translate(1173,888)" d="m0 0h20l54 1 1 1v95l-2 1h-94l-1-1v-96z" fill="#0F92BE"/>
<path transform="translate(704,889)" d="m0 0h97v96l-2 1h-94l-1-1z" fill="#0F94C1"/>
<path transform="translate(928,777)" d="m0 0h96l1 1v95l-2 1h-95z" fill="#17ACE0"/>
<path transform="translate(817,777)" d="m0 0h95l1 1v95h-22l-2-2 1-5v-81h-9v82l-5 3-2-1v-84l-6-1-1 7-1 4 1 3v17l-3 2v9l-2 3-1-44h-7l-2 5-3 6h2l1 10-1 50-2 6 1 6-3 2h-5l-1 2-6 1-19 1v-96z" fill="#139DCB"/>
<path transform="translate(1353 1e3)" d="m0 0h8v1l-16 3-35 1h-525l-134 1v25l1 17 1 12 2 5 6 1h7l-3 2-18 4-13 1h-25l-2-6v-63l1-1 718-1 19-1z" fill="#139DCC"/>
<path transform="translate(1173,888)" d="m0 0h20l45 1 7 2 1 1v17l1 16-1 38v16l-2 4h-5l-1-86h-4l-1 14v50l1 20 2 1-2 1h-7l-4-1-1-3 2-1v-81h-8v2l-5 2-1-5-8 1-2 5-1 38-1 22-2 1v-66h-9l-3 2-9-1-8 1v-2h-7v80h6v-21l1-7 1-35 3 2 1 49v13l3 1v3l-9 3h-15v-96z" fill="#149FCE"/>
<path transform="translate(1040,776)" d="m0 0h96v98h-19l4-2 1-4 5-2v-81h-5l-1 80 3 1h-4l-1-11v15l-5-1-1-1v-84h-8l-1 6-1 27-2 23-2 3v-58h-7l-1 2v-3-2l-6 2-1 8h-1v-7h-5l-1 80h-1l-1-82h-3l-2 1-1 2h-11l-10-1v81h9l-2 5-6 2h-8l-1-7-1-71v-18z" fill="#0F8DB7"/>
<path transform="translate(868,784)" d="m0 0h6l1 1v80l-1 4 4-1 2-4v-72l1-7h9l1 19v62l-1 5 1 1 21 1v1h-94v-1l17-1 12-3 3-1-2-8 2-4 1-60h-2l2-6 3-5h7l1 6 1 33v-13h1l1 5 1-1v-17l-1-4z" fill="#0F92BD"/>
<path transform="translate(901,1144)" d="m0 0h13l10 5 6 7 3 7v12l-5 10-9 8-5 2h-15l-8-4-7-8-4-10 1-10 4-8 4-5 6-4z" fill="#EFF5F8"/>
<path transform="translate(704,889)" d="m0 0h97v96l-2-1 1-94-25 1h-15l-9 1-2 1-9-1-6 1 1 2v83h-9l-2-8 1-16v-20l-3-11-1 4-1 51h-6l-1-1v-85l-6-1-1 3-1 91h-1z" fill="#0F8AB4"/>
<path transform="translate(937,896)" d="m0 0h6l1 4 4 1 1-2h2v-2l3-1 4 1v81h-7l-3-2-1-6v-9l-2-21-1-1v18l-1 20-1 1h-6v-69z" fill="#0F93BF"/>
<path transform="translate(760,890)" d="m0 0h40v90l-1 3h-6l-3-3h2l1-11 1-71-10-1 1 83h-2l-1 3-6-2 2-3 1-11v-32l-1-39h-8l-2 9-2 53-2-4-1-57h-12v-2l-9 2h-7l-2-5 8-1 9 1 1-1z" fill="#14A1D1"/>
<path transform="translate(1077,673)" d="m0 0h6l1 1 1 59 3-2 1 2 1-52 1-8h8v81l-11 1-11-1-1-38z" fill="#1092BD"/>
<path transform="translate(1512,869)" d="m0 0 2 3 2 7 2 17v15l31-9 14-3 8-1h34l14 2 21 7 13 6 1 3-7 11-9 11-11 11-13 9-14 8-15 6-14 4-24 4-13 1h-37l-3 9-11 25-8 17h-1v-6l11-24 4-10 4-7h2l1-5 1-1h19l30-2 22-3 7-3 8-3 11-5 14-7 7-5h2v-2h2v-2l8-7 10-11 3-7 4-2 2-5h-2l-2-3-11-4-17-3-6-2-22-1h-18l-10 2-13 2-20 6h-8l-3-31-2-6z" fill="#0F96C3"/>
<path transform="translate(705,891)" d="m0 0h8l2 5h-2l1 81 6 1v-51l1-8 2 4 3 11v26l-1 11 2 9-7 1-1 1-11 2-3 1z" fill="#14A0CF"/>
<path transform="translate(905,1149)" d="m0 0h6l2 1-2 13 8 1 6-1 2 3v5l-4 9-8 7-4 1h-11l-9-7-3-5v-14l4-6 6-5z" fill="#375761"/>
<path transform="translate(1041,777)" d="m0 0 9 1v2h3v2l9-2 2 1v2l2 1-5 2-13-1v81h9l-2 5-6 2h-8l-1-7-1-71 1-17z" fill="#149FCE"/>
<path transform="translate(1100,778)" d="m0 0 9 1 2-1h8l4 2-2 4-1 21v35l-1 15v15l-5-1-1-1v-84h-8l-1 6-1 27-2 23-2 3-1-58-2-4 1-2z" fill="#149FCE"/>
<path transform="translate(1131,777)" d="m0 0 4 1v95h-12l-2-1 1-4 5-2v-81l-1-3h-2v-3z" fill="#14A2D2"/>
<path transform="translate(882,785)" d="m0 0h8l1 19v49l-1 12h-8l-1-31v-37z" fill="#39535B"/>
<path transform="translate(995,897)" d="m0 0h6l1 11v68l-1 1h-7l-1-8v-49l1-22z" fill="#39535B"/>
<path transform="translate(1106,785)" d="m0 0h7v80h-7l-1-6v-72z" fill="#39535B"/>
<path transform="translate(785,897)" d="m0 0h7l1 1v70l-1 9h-5l-2-2z" fill="#39535B"/>
<path transform="translate(1218,897)" d="m0 0h6l1 28v29l-1 23h-6l-1-4v-56z" fill="#39535B"/>
<path transform="translate(897,785)" d="m0 0h7v81h-6l-1-5z" fill="#39535B"/>
<path transform="translate(1203,897)" d="m0 0h6l1 1v78l-1 1h-5l-1-1-1-62z" fill="#39535B"/>
<path transform="translate(994,785)" d="m0 0h7v80h-7z" fill="#39535B"/>
<path transform="translate(1108,896)" d="m0 0 5 1v74l-1 6h-6v-80z" fill="#39535B"/>
<path transform="translate(1009,785)" d="m0 0h6l1 1v79l-4 1-2-1-1-4z" fill="#39535B"/>
<path transform="translate(900,896)" d="m0 0 4 1v80h-6l-1-7v-73z" fill="#39535B"/>
<path transform="translate(1064,785)" d="m0 0h5l1 5v75h-6l-2-3 1-76z" fill="#39535B"/>
<path transform="translate(1011,896)" d="m0 0 4 1 1 6v67l-1 8-6-1v-80z" fill="#39535B"/>
<path transform="translate(841,784)" d="m0 0 5 1v80h-7v-70l1-10z" fill="#39535B"/>
<path transform="translate(772,897)" d="m0 0h6l1 43v25l-1 12h-6l-1-3v-76z" fill="#39535B"/>
<path transform="translate(980,785)" d="m0 0h6l1 8v72h-7z" fill="#39535B"/>
<path transform="translate(854,785)" d="m0 0h7v69l-1 11-3 1-3-1z" fill="#39535B"/>
<path transform="translate(1160,897)" d="m0 0h6l1 37v22l-1 21h-6l-1-10v-47z" fill="#39535B"/>
<path transform="translate(953,784)" d="m0 0 5 1v80h-6l-1-4v-75z" fill="#39535B"/>
<path transform="translate(883,897)" d="m0 0h6l1 1v78l-1 1h-5l-1-4z" fill="#39535B"/>
<path transform="translate(1092,785)" d="m0 0h6v80h-6l-1-6v-72z" fill="#39535B"/>
<path transform="translate(981,897)" d="m0 0h5l1 10v68l-1 2h-6v-79z" fill="#39535B"/>
<path transform="translate(1234,896)" d="m0 0 5 1v81h-5l-1-1-1-16v-50l1-14z" fill="#39535B"/>
<path transform="translate(744,897)" d="m0 0h5v79l-1 1h-5l-1-1v-59l1-19z" fill="#39535B"/>
<path transform="translate(1106,674)" d="m0 0h7v61l-1 18h-6l-1-61z" fill="#39535B"/>
<path transform="translate(825,785)" d="m0 0h6l1 2-1 79h-6l-1-1v-33z" fill="#39535B"/>
<path transform="translate(1078,785)" d="m0 0h5l1 7v57l-1 16-5 1-1-1v-74z" fill="#39535B"/>
<path transform="translate(1175,897)" d="m0 0h5l1 7v72l-5 1h-2v-79z" fill="#39535B"/>
<path transform="translate(1063,674)" d="m0 0h6v79h-7v-63z" fill="#39535B"/>
<path transform="translate(966,897)" d="m0 0h5l1 2v78l-3 1-4-2v-66z" fill="#39535B"/>
<path transform="translate(1621,902)" d="m0 0 7 1 16 6 9 4 1 3-7 11-9 11-11 11-13 9-14 8-15 6-14 4-24 4-13 1h-37l-3 9-11 25-8 17h-1v-6l11-24 4-10 4-7h2l1-5 1-1h19l30-2 22-3 18-5 15-6 14-9 13-10 14-14 8-12-1-4-16-7-12-4z" fill="#0F87AF"/>
<path transform="translate(953,896)" d="m0 0 5 1v81h-6l-1-17v-18l1-46z" fill="#39535B"/>
<path transform="translate(929,895)" d="m0 0 5 3 2 4-1 5v55l-1 14 3 3 3 2-7 1-4 2z" fill="#1AB5EB"/>
<path transform="translate(713,897)" d="m0 0h6l1 5-1 75-5 1-1-1z" fill="#39535B"/>
<path transform="translate(1122,896)" d="m0 0h5v81l-5 1-1-1v-80z" fill="#39535B"/>
<path transform="translate(1122,784)" d="m0 0h5v81l-3 1-3-1v-80z" fill="#39535B"/>
<path transform="translate(1048,785)" d="m0 0h6v81h-6z" fill="#39535B"/>
<path transform="translate(825,897)" d="m0 0h6v80l-1 1h-5z" fill="#39535B"/>
<path transform="translate(871,784)" d="m0 0 4 1v80l-2 1-4-1v-80z" fill="#39535B"/>
<path transform="translate(1473,1032)" d="m0 0 1 2-16 32-4 4-16-4-19-7-18-9-1 3-11 8-11 5-19 6-24 4-28 2h-13l-32-2-8-1v-1h67l27-3 13-3 11-4 7-1 10-5 8-6 3-1v-2l7 1 5 3 14 6 15 5 10 2h4l8-15 3-9 3-5h2z" fill="#1091BC"/>
<path transform="translate(1093,896)" d="m0 0 5 1v80h-6v-80z" fill="#39535B"/>
<path transform="translate(1065,896)" d="m0 0 4 1v80h-7l1-79z" fill="#39535B"/>
<path transform="translate(1122,673)" d="m0 0h5v81l-6-1v-79z" fill="#39535B"/>
<path transform="translate(728,897)" d="m0 0h6v80h-6z" fill="#39535B"/>
<path transform="translate(966,785)" d="m0 0h5l1 1v79h-6z" fill="#39535B"/>
<path transform="translate(1078,896)" d="m0 0h5v81h-6v-73z" fill="#39535B"/>
<path transform="translate(1049,896)" d="m0 0h5v82h-5l-1-3v-67z" fill="#39535B"/>
<path transform="translate(1189,897)" d="m0 0h5l1 1v78l-5 1-1-3z" fill="#39535B"/>
<path transform="translate(869,897)" d="m0 0h5l1 1v79h-6z" fill="#39535B"/>
<path transform="translate(1092,674)" d="m0 0h6v79h-6z" fill="#39535B"/>
<path transform="translate(937,896)" d="m0 0 5 1 1 80-1 1h-6v-69z" fill="#39535B"/>
<path transform="translate(1244,906)" d="m0 0 2 1 1 18-1 38v16l-2 4h-5l1-34v-37l2-3h2z" fill="#15A3D3"/>
<path transform="translate(937,785)" d="m0 0h5l1 80-1 1h-5l-1-3v-20z" fill="#39535B"/>
<path transform="translate(758,897)" d="m0 0h5v79l-5 1-1-4z" fill="#39535B"/>
<path transform="translate(841,896)" d="m0 0 4 1 1 76-1 4h-5v-80z" fill="#39535B"/>
<path transform="translate(855,897)" d="m0 0h5l1 1-1 79h-5z" fill="#39535B"/>
<path transform="translate(1049,673)" d="m0 0 5 1v79l-5 1z" fill="#39535B"/>
<path transform="translate(1078,674)" d="m0 0h5v79h-5z" fill="#39535B"/>
<path transform="translate(722,892)" d="m0 0 6 1-1 85-2-2-1-6 1-16v-20l-3-11-1 4-1 51-2-1 1-68 1-14-2-1z" fill="#0F92BE"/>
<path transform="translate(979,896)" d="m0 0h7v1l-5 1-1 79-2-1-2-11 1-9v-26l-1-9-2-6-1 56h-1l-1-74h2l1 4v6l1-7z" fill="#0F8DB8"/>
<path transform="translate(1166,897)" d="m0 0 1 2 7-1 1 2-1 78h-2l-1-5v-22l-1-35-1-1-1 34h-1l-1-15z" fill="#0F90BB"/>
<path transform="translate(1211,910)" d="m0 0 4 2 1 17 1 51-7 1z" fill="#0F96C3"/>
<path transform="translate(1441,806)" d="m0 0 1 4-4 9-5 19-1 6v32l3 24 5 15 3 5 3 7 7 14 7 9 5 4v6l-4 3-2-1 4-3-1-4-8-8-8-12-7-14-6-18-4-25v-27l3-19 5-17z" fill="#1091BC"/>
<path transform="translate(882,896)" d="m0 0h7v1h-6l1 65v15l5-1 1-69h1v70l-1 1h-9l-1-17v-45l1-15z" fill="#1093BF"/>
<path transform="translate(878,797)" d="m0 0 2 1 1 69-5 3-2-1 1-11 1-59z" fill="#14A2D2"/>
<path transform="translate(1216,897)" d="m0 0h2v80h6v-23h1v24h-8l-1-1-1-48-1-17-2-1-1 62h-1v-75l6 1z" fill="#0F8BB4"/>
<path transform="translate(770,896)" d="m0 0h8v1l-6 1v79h6v-79h1l1 37v32l-1 11h-9l-1-11v-64z" fill="#0F88B1"/>
<path transform="translate(1062,785)" d="m0 0 2 1-1 77 7 2v-58h1v59h-10l-1-3v-66z" fill="#0F86AE"/>
<path transform="translate(757,896)" d="m0 0h6l1 1v80l-1 1h-6l-1-1-1-18v-39zm1 1-1 76 1 4 5-1v-79z" fill="#0F87AF"/>
<path transform="translate(1452,787)" d="m0 0 5 2 8 8 8 7v2h2l7 8 10 12 8 13 10 21 2 5v3h-2l-4-11v-2h-2l-2-7-3-3-9-16-9-10-1-5-4-1-7-8-13-13-1-2-5 1z" fill="#1194C1"/>
<path transform="translate(1071,794)" d="m0 0 4 3v58l-4 2z" fill="#15A3D3"/>
<path transform="translate(1473,1032)" d="m0 0 1 2-16 32-4 4-16-4-19-7-18-9-1 3-11 8-11 5-3-1 14-7 8-6 3-1v-2l7 1 5 3 14 6 15 5 10 2h4l8-15 3-9 3-5h2z" fill="#0F87AF"/>
<path transform="translate(1512,869)" d="m0 0 2 3 2 7 2 17v15l31-9 14-3 8-1h34l14 2 2 2-25-2h-17l-21 2-13 4-20 6h-8l-3-31-2-6z" fill="#0F88B0"/>
<path transform="translate(825,1319)" d="m0 0 8 1 35 7 33 4 27 2h41l-2-4 5 2 3 2v2h-57l-31-3-33-5-26-6z" fill="#19B1E6"/>
<path transform="translate(1062,673)" d="m0 0h8v81h-10v-29l1-48zm1 1-1 21v58h7v-79z" fill="#0F89B2"/>
<path transform="translate(817,816)" d="m0 0h1v18l4 1 1 11v19l-2 4-4-2z" fill="#1AB5EB"/>
<path transform="translate(1202,896)" d="m0 0h8l-1 2-6-1v24l1 55h6v2h-8l-2-3v-32l1-40z" fill="#0F87AF"/>
<path transform="translate(1103,790)" d="m0 0h1v65l-1 2h-2l2 4-3 6-2-1 1-23 2-13 1-13z" fill="#0F97C5"/>
<path transform="translate(975,980)" d="m0 0 5 2 8 1h10l3 1 18 1v1h-85v-1h26v-2l12-1z" fill="#0F8EB9"/>
<path transform="translate(784,897)" d="m0 0h1l1 78 6 2 1-79h1v71l-1 9-3 1-6-2z" fill="#0F87AF"/>
<path transform="translate(742,896)" d="m0 0h7v1l-5 1-1 19v59l5 1v1h-6l-2-4v-60z" fill="#0F87AF"/>
<path transform="translate(951,897)" d="m0 0h1v81l-2-1-1-20v-32z" fill="#0F87AF"/>
<path transform="translate(1402,1047)" d="m0 0 6 2 6 3 11 5 10 1 4 3 14 4v-2l4-4 4-7 1 3-7 12-10-1-16-5-15-6-6-3-3-2-5-1z" fill="#0F96C3"/>
<path transform="translate(1072,781)" d="m0 0 4 2v70h-1l-1-56-2-2-1 12h-1l-1-24h3z" fill="#0F95C2"/>
<path transform="translate(936,896)" d="m0 0h1v83l-3-1-1-7 1-16v-52z" fill="#139AC8"/>
<path transform="translate(1238,889)" d="m0 0h9l1 1v95h-1l-1-67-1-14v-12l-7-2z" fill="#0F87AF"/>
<path transform="translate(1235,893)" d="m0 0 1 2h3l-1 2h-4l-1 14v50l1 17h-2l-2-10v-68l2-5z" fill="#0F92BE"/>
<path transform="translate(1493,985)" d="m0 0 1 2-2 4-2 8-8 18-7 15h-1v-6l11-24 4-10z" fill="#0F8FBA"/>
<path transform="translate(1e3 910)" d="m0 0 4 2v20l-1 13-2 3-1-1v-31-2z" fill="#1AB5EB"/>
<path transform="translate(1485,819)" d="m0 0 5 4 10 16 10 21 2 5v3h-2l-4-11v-2h-2l-2-7-3-3-9-16-3-6z" fill="#1092BD"/>
<path transform="translate(1239,897)" d="m0 0h1v6h2l2 2v4h-2l-1 3v48l-1 18h-1z" fill="#0F8BB5"/>
<path transform="translate(894,796)" d="m0 0h1v36l-1 13-2 1v-43z" fill="#1AB5EB"/>
<path transform="translate(1211,910)" d="m0 0 4 2v17l-1 9-2 10h-1z" fill="#15A3D3"/>
<path transform="translate(1173,888)" d="m0 0h20l42 1v1l-20 1h-32l-10-1z" fill="#0F93BF"/>
<path transform="translate(1211,954)" d="m0 0 2 3 1 9 1 1 2 13-7 1z" fill="#14A2D1"/>
<path transform="translate(1120,680)" d="m0 0h1v73l6 1-2 2-7-2 2-1-1-3z" fill="#1097C5"/>
<path transform="translate(1442,926)" d="m0 0h2l3 7 4 4 4 6 5 7 5 4v6l-4 3-2-1 4-3-1-4-8-8-8-12-4-7z" fill="#1091BC"/>
<path transform="translate(978,931)" d="m0 0h1v45l-2-4-1-7 1-9v-24z" fill="#0F96C3"/>
<path transform="translate(967,1329)" d="m0 0 5 2 3 2v2h-55v-2h49z" fill="#1CB5EA"/>
<path transform="translate(878,797)" d="m0 0h1v19l-1 16-2-1v-32z" fill="#1AB5EB"/>
<path transform="translate(1473,1032)" d="m0 0 1 2-15 30h-2l2-6 4-7 3-9 3-5h2z" fill="#0F8AB3"/>
<path transform="translate(1231,937)" d="m0 0h1l2 41h-2l-2-10z" fill="#0F8BB5"/>
<path transform="translate(706,1048)" d="m0 0h5l4 5 3 2v2l-4-2-4-4-6 2-7 4h-3v-2l11-6z" fill="#1093BF"/>
<path transform="translate(1372,1063)" d="m0 0m-1 1 4 1v2l-16 5h-5v-2z" fill="#1195C1"/>
<path transform="translate(1437,908)" d="m0 0 6 12 3 7 2 7-2-1-2-7h-3l-4-10z" fill="#129AC7"/>
<path transform="translate(1060,780)" d="m0 0 4 1v2l2 1-5 2-13-1v-1l6-2z" fill="#139FCD"/>
<path transform="translate(1501,843)" d="m0 0 3 4 6 13 2 5v3h-2l-4-11v-2h-2l-3-8z" fill="#0F8FB9"/>
<path transform="translate(1072,781)" d="m0 0 4 2-1 7-4 2-1-1-1-8h3z" fill="#14A2D2"/>
<path transform="translate(1397,1049)" d="m0 0h3v2l-8 6-10 6-2-1 11-8z" fill="#0F96C3"/>
<path transform="translate(935,962)" d="m0 0h1l1 6v11l-3-1-1-7 1-8z" fill="#139ECC"/>
<path transform="translate(1238,889)" d="m0 0h9v29h-1l-1-14v-12l-7-2z" fill="#0F94C1"/>
<path transform="translate(1119,826)" d="m0 0h1v14l-1 9h-1l-1-17 1-4z" fill="#0F96C3"/>
<path transform="translate(722,892)" d="m0 0 6 1-1 4h-2l-1 3-3-1-1-4-2-1z" fill="#15A3D3"/>
<path transform="translate(1091,781)" d="m0 0 1 2 2 1-5 3-3 3h-2v-6l2-2z" fill="#14A2D2"/>
<path transform="translate(1173,888)" d="m0 0h20l-1 3h-9l-10-1z" fill="#0F8FBA"/>
<path transform="translate(743,889)" d="m0 0h10l7 1v1l-9 1-2 1-7-2z" fill="#0F96C3"/>
<path transform="translate(1531,907)" d="m0 0h7l-3 2-10 3h-3v-2z" fill="#0F90BB"/>
<path transform="translate(1510,868)" d="m0 0h2l2 9 1 7-3-1z" fill="#139FCF"/>
<path transform="translate(1101,777)" d="m0 0h18v1l-12 2-6-1z" fill="#0F96C3"/>
<path transform="translate(1235,893)" d="m0 0 1 2h3l-1 2h-4l-1 14h-1v-16z" fill="#0F8CB6"/>
<path transform="translate(1452,787)" d="m0 0 5 2 5 6-4-1-3-4-5 1z" fill="#0F91BD"/>
</svg>
