<?xml version="1.0" encoding="UTF-8"?>
<svg version="1.1" viewBox="0 0 2000 2000" width="500" height="500" xmlns="http://www.w3.org/2000/svg">
<path transform="translate(608,488)" d="m0 0h571l5 2 14 14 2 1v2l4 2 53 53 8 7 33 33 2 1v2l4 2 29 29 8 7 29 29 6 5v2l4 2 20 20 3 6v869l-1 13-3 11-7 11-7 7-14 7-7 2-13 1h-768l-15-1-6-5-7-8-9-10-9-11-16-17-9-10-9-11-6-7-1-2v-289l4-17 7-13 8-10 9-9 10-6 13-5 16-3h5v-658l2-13 5-12 7-9 10-8 11-5z" fill="#1D1B1B"/>
<path transform="translate(568,1192)" d="m0 0h505l25 1 15 4 9 4 11 6 11 9 9 12 7 15 3 14 1 34v182l-1 14-4 15-7 14-11 13-15 11-11 5-14 3-10 1h-522v61l-1 16-4-2-11-12-9-11-13-14-7-8-12-13-9-11-6-7-1-2v-289l4-17 7-13 8-10 9-9 10-6 13-5 16-3h5z" fill="#BD0138"/>
<path transform="translate(702,713)" d="m0 0h256l30 1 5 2 1 2v12l-7 75-9 96-8 87-6 60-5 4-38 12-31 9-59 17-9-1-24-8-35-11-38-12-21-7-6-4-2-8-6-56-6-63-10-99-9-90v-14l6-3z" fill="#EC642E"/>
<path transform="translate(1075,782)" d="m0 0h275l2 4v321l-3 2-19 1-1 19-2 2-5 1h-267l-5-2v-321l4-4h18v-17l1-5z" fill="#FEFEFD"/>
<path transform="translate(1061,921)" d="m0 0h255l2 1v191l-1 10h-251l-6-1v-200z" fill="#201C1B"/>
<path transform="translate(1181,489)" d="m0 0 4 2 13 13 2 1v2l4 2 53 53 8 7 33 33 2 1v2l4 2 29 29 8 7 29 29 6 5v2l4 2 20 20 2 4h-221z" fill="#FCC205"/>
<path transform="translate(747,802)" d="m0 0h164l5 4v18l-2 9-4 3-3 1-120 1-4 2-1 2v14l2 13 3 3 3 1 113 1 7 3 1 6-8 89-2 9-8 3-46 14-15 4-8-1-48-14-15-5-4-4-2-14-2-25v-10l4-3 4-1h20l6 4 4 20 2 5 24 8 6 1h11l26-7 6-3 2-3 2-15 1-21-1-3-2-1-106-1-8-1-3-4-3-20-4-42-2-24v-11l2-4z" fill="#FEFEFD"/>
<path transform="translate(1084,792)" d="m0 0h256l1 1v305l-1 1-11-1-1-171v-56l-2-7-57-57-2-1h-179l-4-1-1-5z" fill="#2E1E1D"/>
<path transform="translate(869,1308)" d="m0 0h5l9 9 13 17 11 14 14 18 4 5v2l3-1 22-28 10-13 9-11 7-9 4-3h5l1 120-1 2-18 1-5-1-1-28v-31l-1-2-11 13-10 13-7 8-3 2-6-1-9-10-11-14-9-11-2-1v62l-18 1-6-2v-115z" fill="#FEFEFD"/>
<path transform="translate(652,1311)" d="m0 0 2 1 1 44 4 1h48l1-45 2-1h21l1 1v118h-23l-1-5v-47l-53 1-1 51-18 1-6-1v-118z" fill="#FEFEFD"/>
<path transform="translate(750,1311)" d="m0 0h101v21l-38 1-1 97-17 1-6-1-1-2-1-95h-31l-6-1-1-2v-15z" fill="#FEFEFD"/>
<path transform="translate(1015,1312)" d="m0 0h23l1 97h51l1 1v20l-46 1h-26l-4-1-1-5v-93z" fill="#FEFEFD"/>
<path transform="translate(1158,827)" d="m0 0 13 1 7 4 4 7 2 8-5 5-5-1-5-8v-2h-13l-5 3h-2v7l4 5 16 2 8 5 4 5 2 5v11l-5 8-5 4-7 3-10 1-10-3-7-6-3-7 1-7 2-2h7l4 9 7 2 10-2 3-3v-6l-4-4-3-1-13-1-6-3-6-7-2-6v-9l5-10 7-5z" fill="#2D1F1C"/>
<path transform="translate(1215,827)" d="m0 0 15 1 7 5 4 7 1 6-4 6-6-1-5-9-2-1h-11l-5 3-1 1 1 9 2 2 16 2 7 4 6 7 2 7-1 8-4 7-7 6-5 2-11 1-10-3-5-4-4-7v-9l4-3 6 2 4 8 5 2 9-1 4-2 1-2v-7l-6-4-13-1-8-4-5-7-1-3v-13l3-6 7-6 4-2z" fill="#2C1F1C"/>
<path transform="translate(1229,969)" d="m0 0h6l8 4 5 4 4 8 1 6 1 16 4 6 10 4 2 2-1 7-11 4-3 1-1 5-1 18-3 8-4 6-6 4-5 2h-8l-3-4 1-5 12-5 3-4 1-3 1-19 5-10 1-3-4-6-2-8-1-16-3-7-12-5-2-2 1-5z" fill="#FEFEFD"/>
<path transform="translate(1144,969)" d="m0 0h6l3 4v5l-14 7-2 5-1 17-3 9-3 4 1 4 4 8 1 6 1 16 4 6 10 4 2 2v6l-3 2-10-1-9-6-4-6-2-7-1-17-3-6-3-2-7-2-3-3v-5l4-3 9-4 2-2 1-5 1-18 5-10 8-6z" fill="#FEFEFD"/>
<path transform="translate(1100,828)" d="m0 0h22l2 1v8l-3 3-15 1-7 2-5 5-3 7v17l4 8 5 4 9 2 13 1 2 2v7l-3 3-12 1-10-2-8-4-6-5-6-10-2-12v-11l2-9 4-8 9-8z" fill="#2B1F1C"/>
<path transform="translate(1270,825)" d="m0 0 4 2 34 34-1 3-35-1-1-1-1-7z" fill="#2D201C"/>
</svg>
