<?xml version="1.0" encoding="UTF-8"?>
<svg version="1.1" viewBox="0 0 2000 2000" width="500" height="500" xmlns="http://www.w3.org/2000/svg">
<path transform="translate(956,675)" d="m0 0h89l45 3 45 4 34 4 48 8 49 11 39 10 26 8 39 14 32 13 24 11 28 14 27 16 17 11 17 12 22 18 10 9 5 4v2l4 2 8 8 7 8 11 13 12 17 9 15 8 16 8 20 5 20 4 28v11l-2 19-5 24-6 18-9 20-11 19-12 17-12 14-11 13-13 12-11 9-10 9-19 14-18 12-18 11-22 12-23 12-19 9-33 14-37 13-26 8-40 11-35 8-43 8-49 7-47 5-54 3h-90l-42-2-41-4-47-6-47-8-31-7-50-13-41-13-26-9-31-13-24-11-25-13-23-13-19-12-20-14-13-10-14-12-11-10-6-5-7-8-11-12-14-19-10-15-8-14-10-25-6-22-4-29v-13l4-30 7-24 11-25 11-19 10-14 11-14 7-7 1-2h2l2-4 12-12 8-7 10-9 14-11 18-13 22-14 19-11 29-15 28-13 37-15 36-13 33-10 42-10 50-10 42-7 46-5 50-4z" fill="#777BB1"/>
<path transform="translate(940,756)" d="m0 0h76l6 3 4 5v9l-7 38-7 32h56l23 1 22 4 15 5 17 9 10 8 8 11 5 11 4 14 1 1 5-26 7-31 4-5 2-1h169l20 3 21 7 18 10 13 10 10 11 9 15 6 16 3 16v35l-4 23-5 17-7 16-8 15-9 12-14 15-10 9-17 12-21 11-21 7-23 4-11 1-76 1-3 13-11 56-4 13-4 3-9 1h-73l-7-3-3-5v-10l10-54 3-15h-86l-5-4-2-4 1-13 12-63 11-55 5-30v-13l-4-3-7-1-62-1-1 10-12 63-20 100-4 10-3 3-4 1h-81l-4-3v-2h-2l-1-2v-11l7-38 3-16-9 12-12 13-13 12-15 11-16 9-15 6-13 4-23 4-10 1-77 1-2 7-11 58-4 14-2 4-8 3h-76l-7-2-4-7v-9l14-72 23-116 18-92 9-44 3-7 5-3 103-1 65 1 20 3 21 7 15 8 13 9 11 11 11 18 6 15 3 7 7-36 24-120 3-6 4-3z" fill="#F9F9FB"/>
<path transform="translate(634,856)" d="m0 0h152l20 2 20 5 21 10 10 8 9 9 9 14 6 15 3 15v31l-4 23-6 18-10 21-10 14-12 13-11 10-16 11-19 10-13 5-13 3-26 3-84 1-2 6-8 43-5 26-2 10-1 1h-36l-35-1v-9l5-24 6-30 3-16 3-15 2-7 1-11 4-14 3-19 17-86 2-11 16-81z" fill="#020103"/>
<path transform="translate(1196,856)" d="m0 0h153l19 2 21 5 11 5 13 7 12 11 9 11 8 16 3 9 2 18v17l-2 22-5 19-6 15-6 12-8 12-11 13-8 8-14 11-11 7-15 8-15 6-13 3-27 3-84 1-8 43-4 20-5 23h-72l1-9 5-23 7-38 5-24 9-48 5-23 7-37 7-34 7-37 5-26 3-13z" fill="#020102"/>
<path transform="translate(941,769)" d="m0 0h71v7l-8 41-4 21-3 14v3l86 1 16 2 17 4 16 7 10 7 8 9 6 12 2 8v30l-5 28-16 81-10 51-2 1h-71l1-9 7-35 7-37 6-29 6-32 1-7v-21l-3-6-7-6-5-2-19-2-63-1-3 20-25 126-8 41h-72l3-19 5-25 5-26 4-20 6-31 6-28 8-42 5-23 4-23 5-24 9-47 3-18z" fill="#020102"/>
<path transform="translate(1228,698)" d="m0 0h8l50 12 29 8 36 12 37 14 32 14 34 17 27 16 17 11 17 12 22 18 10 9 5 4v2l4 2 8 8 7 8 11 13 12 17 9 15 8 16 8 20 5 20 4 28v11l-2 19-5 24-6 18-9 20-11 19-12 17-12 14-11 13-13 12-11 9-10 9-19 14-18 12-18 11-22 12-23 12-19 9-33 14-37 13-26 8-40 11-35 8-43 8-49 7-47 5-54 3h-90l-42-2-41-4-47-6-47-8-31-7-50-13-19-6-5-4-6-1-1-2-3-1v-2h-3l-1 2-4-2 4-2 2-2 10-1 7 3h6l10 4 5 1 20 6 12 2v2l3-1 15 3 8 2h5l1 1 14 1 7 2 20 1 28 1 3-1 20 2 7 1 44 4 19 1 21 1 52 1 57-1 33-2 38-3 39-5 32-5 24-5 25-5 34-8 42-12 36-12 27-11 26-11 17-8 17-9 17-10 16-10 15-10 14-10 18-15h2v-2l8-7 6-6h2l2-4h2l2-4h2l2-4 8-9 3-5h2l2-4 16-26 9-20 7-21 3-15 1-9v-25l-3-21-5-18-4-10-5-12-12-22-12-16-9-11-11-12-13-13-8-7-14-11-15-11-17-11-19-11-24-13-27-13-32-14-29-11-36-12-29-9-10-3-3-2v-2l-7-1-5-4-4-2-4-4v-2h-2v-3l-6-1v-2l-4-2 2-1-5-2h-2z" fill="#474D87"/>
<path transform="translate(956,675)" d="m0 0h89l33 2v1l-6 1 6 3 5-1 3 2v3l5 2 1 2v6l-3 3-7 1-20-1h-101l-41 2-36 3-46 6-44 7-39 8-30 7-45 13-38 13-32 13-23 10-16 8-19 10-11 6-13 8-19 12-21 16-11 9-10 9-22 22-9 11-7 8-2 4h-2l-2 4-3 3h-2l-2 4-1 1h-6l-2-3v-3l-2-1h2v-3h-6l1 4h-2l-1 2-3 1 2-5 9-15 14-19 11-12 2-3h2l2-4 12-12 8-7 10-9 14-11 18-13 22-14 19-11 29-15 28-13 37-15 36-13 33-10 42-10 50-10 42-7 46-5 50-4z" fill="#ABAED8"/>
<path transform="translate(1259,908)" d="m0 0h66l18 3 12 5 6 4 6 8 5 14v21l-3 16-6 20-8 15-11 12-7 6-13 6-10 3-19 3-8 1h-54l-1-5 3-11 19-98 3-14 1-8z" fill="#787CB1"/>
<path transform="translate(697,908)" d="m0 0h65l14 2 16 6 6 4 6 8 5 13v23l-4 21-6 16-7 13-11 12-7 6-15 7-18 4-15 2h-56l1-10 8-42 6-32 6-28 3-18z" fill="#787CB1"/>
<path transform="translate(697,908)" d="m0 0h65l14 2 16 6 6 4 6 8 5 13v23l-4 21-6 16-7 13-11 12-7 6-15 7-18 4-15 2h-56l1-10 8-42 6-32 6-28 3-18zm11 12-2 5-13 67-7 34v5h47l15-3 14-5 9-6 8-8 6-10 5-12 5-21 1-9v-10l-3-12-7-8-9-4-10-2-11-1z" fill="#F9F9FA"/>
<path transform="translate(1259,908)" d="m0 0h66l18 3 12 5 6 4 6 8 5 14v21l-3 16-6 20-8 15-11 12-7 6-13 6-10 3-19 3-8 1h-54l-1-5 3-11 19-98 3-14 1-8zm12 12-2 3-10 54-11 54h48l19-4 12-5 8-6 7-7 8-14 5-15 4-21v-15l-4-11-5-6-9-4-10-2-11-1z" fill="#F9F9FA"/>
<path transform="translate(556,1178)" d="m0 0h1l1 9 3 5v2l7 1h76l8-2-4 4-6 2h-60l-20-2-4-5-2-4z" fill="#ABAED8"/>
<path transform="translate(658,1270)" d="m0 0h3l1 2 4 1v1l6 2 3 3-9-2-12-4v-2z" fill="#797DB3"/>
<path transform="translate(874,1036)" d="m0 0 1 2-2 8-6 1 2-4z" fill="#8387B9"/>
</svg>
