<?xml version="1.0" encoding="UTF-8"?>
<svg version="1.1" viewBox="0 0 2000 2000" width="500" height="500" xmlns="http://www.w3.org/2000/svg">
<path transform="translate(919,200)" d="m0 0h59l41 3 42 5 35 6 30 7 40 12 32 11 34 14 20 9 16 8 23 12 24 14 5 4-373-1v109h60l423 1 27 1 4 2v2l3 1 7 8 7 7 9 11 13 15 13 16 12 16 16 23 4 7-1 1h-163l-422-2h-11l-1 109h324l331 1 3 3 13 34 12 36 10 36v3h-381l-260-1h-51v112h266l368 1 75 1 1 2 1 23v58l-1 21-1 7-2 1h-104l-639-2-1-1h-130l-430-2-110-1-1-1v-109l2-20 4-8 7-5 4 1 16 14 2 1-6-20-1-7 9-8 9-6h2v-3l-24 1-2-1-5-17-3-8v-8l7-30 11-37 11-32 14-34 10-21 8-16 7-13h1l-1 7-6 18 4-1 9-8 5-4h5l9 8 10 7-6-19-1-7 8-7 12-8-26-1-2-5-3-9 1-6 15-23 13-19 13-18 11-13 11-14 11-12 9-11 15-16 21-21 8-7 13-12 8-7 14-12 16-12 13-10 14-10 17-11 21-13 25-14 19-10 15-8 8-1 12 9 6 4-1 8-6 17-1 2 9-5 12-10 4 1 8 7 10 7-6-21-1-5 9-7 11-8h2v-2l-27 1-3-7-1-9 12-5 41-14 31-9 34-8 38-6 35-4 22-2zm-62 40-4 10-4 13-1 1h-27l2 4 19 13-1 8-6 15v4l5-2 15-12 3-1 11 9 9 8 2-2-8-24 3-5 14-10 3-3v-2l-27 1-4-16-2-9zm-257 79-3 9-4 13v3h-26l2 4 11 7 5 5 1 4-4 10-3 9v3l5-2 14-11h5l14 11h2v2l4 2-3-10-5-17 10-8 10-7-1-2h-25l-6-23-1-2zm173 1-4 10-4 13v2h-27l5 5 13 9 3 2-1 5-3 7-3 10-1 4 5-1 8-7 8-6 5 2 13 10 3 3h2l-1-5-4-13-2-5v-5l4-2 14-10 2-3h-27l-4-17-2-8zm-264 67-7 26h-26l1 3 18 13 1 2-7 20-2 4 5-1 12-9 5-4h3l5 5 13 10h2l-1-6-5-15-1-6 16-11 3-3v-2h-25l-8-25zm173 2-6 21-1 5h-26l1 3 11 7 6 5h2l-8 25 6-1 15-12 7 4 13 10 3 2-2-10-5-15 1-4 11-7 7-5v-2h-25l-7-23zm174 1-5 17-3 8-26 1 1 3 11 6 9 7-1 5-3 3-2 10-2 3v3l5-1 9-7 7-5 4 1 14 11 3 3h2l-4-16-3-8 1-4 11-7 6-5v-2h-25l-1-7-5-17zm-432 76-7 21-1 4-26 1v2l11 7 9 6-3 10-4 12v3l4-1 17-12h4l2 4 10 7 7 5-4-16-3-8 1-5 11-8 6-4v-2h-26l-1-9-4-16zm176 1-3 9-4 16h-27v3l10 5 10 8-1 5-2 4-2 8-3 9 5-2 13-10 3-2 4 1 13 10 7 5-1-5-6-19v-5l12-8 7-4v-3h-27l-2-11-4-13zm173 1-6 17-2 7h-28l1 3 10 6 10 7 1 4-4 8-2 8-2 4v3l4-1 15-12 5-1 11 9 8 6h2l-7-21-1-6 14-10 6-4v-3l-27 1-4-16-3-9zm-264 68-7 24-28 1 4 4 17 12-1 8-3 5-2 9-2 5 5-2 12-9 6-4 4 2 8 7 7 6h3l-1-6-5-15-1-6 14-10 7-4v-2h-27l-8-25zm173 0-2 7-5 19h-26l2 4 10 7 7 5-2 10-4 11v4l4-1 16-12 4 1 8 7 9 7h1l-1-9-5-17 3-3 10-7 8-6-4-1h-23l-7-22-2-4zm174 1-3 10-4 16h-27l2 4 10 6 8 6v5l-3 4-2 9-2 3v4l5-1 10-8 7-5 8 6 13 11 1-3-7-23v-4l5-2 8-6 6-4v-2h-26l-2-10-5-16zm-432 77-3 8-5 17-27 1 1 3 10 6 10 8-2 6-5 16v4l4-2 14-11 1-1h5l9 8 11 7-3-10-4-13v-5l13-10 6-4-1-2h-26l-1-9-4-15zm175 2-7 24h-25v3l7 5h2l1 3 9 6-3 10-5 13v3l5-1 10-8 6-5 4 1 8 7 12 9-4-16-3-9-1-5 4-2 16-11v-2h-27l-1-8-4-16zm174 0-9 25h-26l5 5 11 9 5 5-3 6-2 3-1 9-1 6 4-1 10-9 6-4 4 1 8 7 8 6 1 2 3-1-5-16-3-8 1-4 16-12 3-2v-2l-27 1-2-10-4-16zm-437 69-6 19-2 7-26 1 1 3 10 6 9 7-1 5-6 18v4l5-2 14-12 4-1 8 7 12 9 1-3-3-8-4-13 1-5 9-7 9-6-1-2-25-1-6-25zm173 0-5 17-1 9-28 1 1 3 10 6 9 7-1 7-6 18v3l4-2 14-11 3-2 4 1 13 11 4 3h2l-1-6-3-10-3-8v-4l12-9 7-5v-2l-25-1-8-25zm173 1-2 7-5 19h-28l1 3 9 6 11 8-2 10-3 7-2 10 6-2 10-9 5-4 4 2 13 11 5 2-1-8-5-16 1-4 14-10 6-4v-2h-27l-7-22zm174 2-8 25-26-1v3l20 15-1 5-2 5-2 8-2 4v4l5-1v-2l4-2 12-9 5 2 11 10 7 4-1-6-5-16-1-6 11-9 9-7v-2l-26 1-5-16-3-9zm-432 78-3 8-5 17v2l-15-1h-12l2 4 10 7 9 7-7 21v5l7-4 13-11 4 1 10 9 8 7 2-1-8-26v-2l6-4 12-9 2-1v-3l-27 1-2-11-4-15zm176 2-6 18-3 8-25-1 6 7 12 9 1 5-6 19 1 3 7-4 12-10 4 1 8 7 10 8 1-2-6-21v-5l8-7 11-8v-2l-27 1-1-8-4-17zm173 0-4 10-5 16h-25l2 4 8 6 9 6-1 7-6 18 1 3 11-8 10-8 7 6 9 7 6 4-1-6-5-16-1-8 5-2 8-6 6-5v-1l-25-1-5-17-3-9zm-437 70-3 8-5 17-1 1h-25l2 4 16 12h2l-2 9-6 17v2l5-1 10-9 7-5 4 2 13 11 5 2-2-10-4-13 1-5 18-14-1-2h-25l-3-12-4-14zm173 0-8 26h-25v4l11 7 6 5h2l-1 8-5 15-1 5 4-1 13-10 3-3 5 1 8 7 9 7h2l-1-6-6-18 1-5 13-9 5-4-1-3-25 1-4-17-3-10zm113 0m60 1-3 9-4 16-1 1h-26v3l13 9 6 4 1 3-6 20-1 6 4-2 11-9 5-4 5 1 7 6 9 7h2l-1-7-5-16 1-5 20-14v-2l-27 1-7-23zm174 1-8 24-1 2h-26l2 4 9 6 10 7-3 10-4 12v4l4-1 13-10 3-2 5 1 16 13h2l-4-19-2-5 1-4 11-9 7-5-1-3-7 1h-17l-6-19-2-7z" fill="#010097"/>
<path transform="translate(258,1073)" d="m0 0 405 2h59l681 1 197 1h38l2 1-4 17-10 34-12 34-8 20-3 3h-101l-645-2h-190l-374-2-5-8-11-30-11-34-9-34z" fill="#F70032"/>
<path transform="translate(350,1292)" d="m0 0h203l139 1 548 1 306 1-2 5-13 19-10 14-12 16-13 16-9 11-11 12-7 8-11 11-10 1h-77l-919-3-15-1-13-13-7-8-22-26-10-13-14-19-16-23-5-8z" fill="#F70032"/>
<path transform="translate(947,855)" d="m0 0h267l368 1 75 1 1 2 1 23v58l-1 21-1 7-2 1h-104l-606-2 1-2z" fill="#F70032"/>
<path transform="translate(947,631)" d="m0 0h324l331 1 3 3 13 34 12 36 10 36v3h-381l-260-1h-45l-6-1-1-8z" fill="#F70032"/>
<path transform="translate(947,413)" d="m0 0h60l423 1 27 1 4 2v2l3 1 7 8 7 7 9 11 13 15 13 16 12 16 16 23 4 7-1 1h-163l-422-2h-12z" fill="#F70032"/>
<path transform="translate(578,1516)" d="m0 0 107 1 513 1h120l-2 3-16 8-21 12-23 12-32 14-46 17-24 8-35 9-37 8-37 6-33 4-17 1h-93l-29-2-34-5-35-6-42-10-25-7-29-10-42-16-30-14-27-14-23-13-8-5z" fill="#F70032"/>
<path transform="translate(966,200)" d="m0 0h12l41 3 42 5 35 6 30 7 40 12 32 11 34 14 20 9 16 8 23 12 24 14 5 4-373-1-1-102 1-1z" fill="#F70032"/>
<path transform="translate(678,253)" d="m0 0v3l-3 8h-19l3-3z" fill="#14008F"/>
</svg>
