<?xml version="1.0" encoding="UTF-8"?>
<svg version="1.1" viewBox="0 0 2000 2000" width="500" height="500" xmlns="http://www.w3.org/2000/svg">
<path transform="translate(451,531)" d="m0 0h120l11 3 8 6 6 9 3 8 1 10v47l145 1 13 4 10 9 4 6 2 6v68h592l1 122 6-4 4-5 4 1 19 19-3 5h-2l-2 4-4 2-1 3-8 7-12 12-1 2-1 289-9 1h-694l-1-318 1-6h-68l-13-4-10-9-5-8-2-7v-114l-32 1h-40l5 24 2 10-5 1-14-7-10-8-7-8-5-12h-9l-12-5-5-4-6-9-3-9v-118l4-10 8-9 10-5zm34 191m290 13-1 1-1 81-4 9-7 8-7 4-13 3-22 1-8 16-7 8-11 8-3 2v218l1 1h645l1-1v-183l-2-7-19-19 1-4 15-14 4-3 1-66v-62zm233 377-6 4-5 7-1 4v7l4 8 7 6 2 1h10l8-4 5-7 1-3v-9l-4-8-6-5-3-1z" fill="#5C8DF7"/>
<path transform="translate(595,621)" d="m0 0h148l13 3 8 8 4 10 1 11v153l-2 13-6 8-7 6-14 3-25 1-4 12-6 9-7 7-11 7-3-1 3-20v-14l-83-1-15-2-6-3-5-4-4-6-2-5-1-9v-164l4-10 5-6 6-4z" fill="#FBAFD7"/>
<path transform="translate(1224,1182)" d="m0 0h51l91 1v48l-6 1h-460l2 4 26 26v3l-8 7-6 7-7 6-7-6-32-32-2-3-4 1-3 4h-2l-2 4-42 42-8-6-27-27v-2l-4-2v-2l-4-2-7-8-5 2-9 10-34 34-3 1-8-7-39-39-3-1-33 33-6 5-5-1-18-18 1-4 59-59 1-2 1-16 1-1h259l42 21h102l20-10 19-10 2-1zm-498 48-11 1h-20l2 4 14 14 5-2 8-8 5-7v-2zm68 1 2 4 15 15h3l4-5 2-1v-2l4-2 7-7v-2z" fill="#5C8EF8"/>
<path transform="translate(451,531)" d="m0 0h120l11 3 8 6 6 9 3 8 1 10v47l145 1 13 4 10 9 4 6 2 6 1 68 1 27-1 1-1 81-4 9-7 8-8 5-13 3h-22l-1 5-6 11-8 9-11 8-2 1-1 3-4 1h-11l-1-2 4-13 2-12 1-12-19 2-68-1-13-4-10-9-5-8-2-7v-114l-32 1h-40l5 24 2 10-5 1-14-7-10-8-7-8-5-12h-9l-12-5-5-4-6-9-3-9v-118l4-10 8-9 10-5zm144 90-11 3-6 5-6 10-1 4v164l1 9 4 8 4 5 6 4 7 2 11 1 83 1v14l-3 20 3 1 11-7 8-8 6-10 3-10 25-1 14-3 8-7 5-7 2-13v-153l-2-15-5-8-8-7-11-2z" fill="#5C8EF8"/>
<path transform="translate(875,924)" d="m0 0h116l7 2 5 5v126l-5 6-10 1h-116l-5-3-3-6v-124l7-6zm38 39-4 6v50l2 5 7 2 17-9 17-10 11-7 2-3-1-7-5-4-16-9-15-9-9-5z" fill="#EC5858"/>
<path transform="translate(872,766)" d="m0 0h123l6 3 2 2v127l-3 5-2 1h-129l-4-4-1-4v-123l2-4zm92 22-53 14-3 1-1 2v49l-12 5-4 4-1 8 3 8 6 4h9l7-6 1-2 1-45 38-10 5-1-1 23-9 2-5 5-2 4 1 9 4 5 8 3 6-1 6-5 2-5v-67l-1-4z" fill="#FEC310"/>
<path transform="translate(1054,764)" d="m0 0h86l19 1 4 3 1 3v127l-2 5h-132l-3-7v-125l4-5 2-1zm59 31-8 3-7 8-2 4v9l5 9 5 4 5 1h8l8-3 4-5 2-6v-11l-4-6-6-5zm-61 33-7 5-1 2-1 53h105v-24l-1-1h-10l-11 9-7 6-7 1-5-3-15-14-17-16-7-7-8-7-6-4z" fill="#EC5959"/>
<path transform="translate(706,669)" d="m0 0 13 2 10 5 8 8 5 9 3 9v17l-2 9-8 16-8 10-11 12-11 11-11 9-17 14-5 2-11-7-13-11-11-9-17-17-10-13-8-16-3-9-1-13 3-13 6-10 7-7 12-6 4-1h17l11 4 9 7 4 4 4-2 7-6 12-6z" fill="#EC5756"/>
<path transform="translate(661,1200)" d="m0 0 2 1v30h20l12 1 16 16 5-2 7-7 5-7 2-1h61l5 3 15 15 3 1 2-4 4-2v-2l8-7 4-4h63l4 1 7 8 22 22v3l-8 7-6 7-7 6-7-6-32-32-2-3-4 1-3 4h-2l-2 4-42 42-8-6-27-27v-2l-4-2v-2l-4-2-7-8-5 2-9 10-34 34-3 1-8-7-39-39-3-1-33 33-6 5-5-1-18-18 1-4 59-59z" fill="#FEC211"/>
<path transform="translate(1070,928)" d="m0 0h5l8 15h25l4-6 4-8 5-1 16 10 4 3-1 5-6 11v5l7 10 3 7 20 1v28l-1 1h-17l-6 9-5 8-2 4 9 15-2 4-12 7-9 5-5-5-7-11-3-1-20 1-5 8-4 8-5-1-19-11-2-4 5-8 4-6-1-4-7-11-4-7h-18l-1-1v-28l20-1 7-13 3-4-1-7-7-12v-2l20-12zm19 39-10 4-7 8-4 9v13l5 10 8 7 7 3 11 1 11-4 8-7 6-12v-8l-5-12-7-8-5-3-5-1z" fill="#FEC310"/>
<path transform="translate(451,531)" d="m0 0h120l11 3 8 6 6 9 3 8 1 10v47l145 1 13 4 10 9 4 6 2 6 1 68 1 27-1 1-1 81-4 9-7 8-8 5-13 3h-22l-1 5-6 11-8 9-11 8-2 1-1 3-4 1h-11l-1-2 4-13 2-12 1-12-19 2-68-1-13-4-10-9-5-8-2-7v-114l-32 1h-40l5 24 2 10-5 1-14-7-10-8-7-8-5-12h-9l-12-5-5-4-6-9-3-9v-118l4-10 8-9 10-5zm7 5-10 2-8 4-8 9-2 6-1 9v96l1 13 5 10 8 7 6 2 13 1 3 3 6 12 9 10 8 7h1l-1-12v-19l1-1h76l1-1v-41l2-16 5-9 8-7 12-5v-50l-2-13-4-6-5-5-7-4-8-2zm137 85-11 3-6 5-6 10-1 4v164l1 9 4 8 4 5 6 4 7 2 11 1 83 1v14l-3 20 3 1 11-7 8-8 6-10 3-10 25-1 14-3 8-7 5-7 2-13v-153l-2-15-5-8-8-7-11-2z" fill="#292027"/>
<path transform="translate(496,568)" d="m0 0h5l-1 13-2 11h34l3-23 1-1h6l-3 23 22 1 1 5-2 2h-23l-2 18-3 15h23v7h-24l-4 24h-5l-1-3 3-21-33 1-4 22-5 1-1-1 1-12 2-12-6 1h-15l-3-2 1-4 24-2 5-32h-20l-3-1v-5l1-1h24l1-11 2-12z" fill="#221C21"/>
<path transform="translate(1287,912)" d="m0 0 4 1 18 18-1 4-30 30-7 8-4 4h-2v2l-8 7-10 10-4-2-10-10-7-8v-4l10-9 13-13 6-7h2l2-4 12-12h2l1-3 8-7z" fill="#EC5959"/>
<path transform="translate(1298,820)" d="m0 0 4 2 3 3v2l4 2 11 12-2 4-59 59-5-1-18-18 1-4 9-9 8-7 7-7 5-6 5-5h2l2-4z" fill="#EC5959"/>
<path transform="translate(706,669)" d="m0 0 13 2 10 5 8 8 5 9 3 9v17l-2 9-8 16-8 10-11 12-11 11-11 9-17 14-5 2-11-7-13-11-11-9-17-17-10-13-8-16-3-9-1-13 3-13 6-10 7-7 12-6 4-1h17l11 4 9 7 4 4 4-2 7-6 12-6zm-70 6-12 3-9 6-7 9-4 13v9l3 11 7 14 7 9 11 13 14 14 11 9 13 10 6-1 20-16 13-12 9-9 13-18 7-14 2-8v-11l-2-8-5-10-8-8-8-4-4-1h-10l-15 5-9 7-6 5-4-1-7-7-12-7-8-2z" fill="#221C21"/>
<path transform="translate(1377,821)" d="m0 0 4 1 19 19-3 5h-2l-2 4-4 2-1 3-8 7-11 11h-2v-2h-9l-1-5h2v-14l-3-6 6-7 3-2 1-7 5-2z" fill="#EC595A"/>
<path transform="translate(497,599)" d="m0 0h33v8l-4 25h-34v-8l4-23z" fill="#5C8EF8"/>
<path transform="translate(1333,866)" d="m0 0h3l1 13v21l-2 2h-3l-7-8-9-9 1-4z" fill="#EC5959"/>
<path transform="translate(772,1220)" d="m0 0h6l5 4v2l4 2 1 3h-55l5-5 9-3 3 1v-2h13v2l5-2z" fill="#221C21"/>
<path transform="translate(881,1219)" d="m0 0 7 6 6 5v1h-59l5-5 4-3 6 1 3-1 7 1 1 3h2v-2l13-2 1-2z" fill="#221C21"/>
<path transform="translate(663,1206)" d="m0 0h2l2 3v4h3l4 4 6 2 12 12v1l-29-1z" fill="#221C21"/>
<path transform="translate(957,800)" d="m0 0 3 1v5l-2 2-30 8-11 2-1-1v-5l7-3 31-8z" fill="#FCC110"/>
<path transform="translate(1365,837)" d="m0 0h1l1 26v8h-9l-1-5h2v-14l-3-6 6-7z" fill="#221C21"/>
<path transform="translate(1341,862)" d="m0 0 3 4 1 6-1 2 2 1 1 3-2 1-1 4h3l1 7-4 6-5 1-1-32z" fill="#221C21"/>
<path transform="translate(878,924)" d="m0 0h81v1l-11 1-1 1h-15l-8-1-46-1z" fill="#FDBB6D"/>
<path transform="translate(1298,820)" d="m0 0 3 1-2 2-7 6-18 18v-3zm-27 27 2 1-4 3zm-3 4m-2 1 2 1-2 1zm-1 2m-1 1m-2 1 2 1-2 1zm-1 2m-1 1m-1 1m-1 1m-1 1m-1 1m-1 1m-1 1m-1 1m-1 1m-1 1m-1 1m-1 1m-1 1m-2 1 2 1-10 10-1 3-1-4z" fill="#F37E90"/>
<path transform="translate(1336,864)" d="m0 0 1 2h2v33l-2 6-4-3 3-2v-21l-1-14z" fill="#D39CCE"/>
<path transform="translate(1366,830)" d="m0 0 2 1 1 38 1 3-3 1-1-4z" fill="#E692B5"/>
<path transform="translate(960,924)" d="m0 0h31v1l-20 2v-2h-11z" fill="#FDBB73"/>
</svg>
