<?xml version="1.0" encoding="UTF-8"?>
<svg version="1.1" viewBox="0 0 2000 2000" width="500" height="500" xmlns="http://www.w3.org/2000/svg">
<path transform="translate(970,564)" d="m0 0h5l1 1v291l-1 33-3 12 6 9 11 15 11 18 11 22 8 20 9 28 3 10 7 1 325 2h228l1 1v492l-22-3-79-11-248-35-177-25-14-2-1 4-12 18-3 4v2l17 9 14 10 15 13 9 10 7 11 6 12 4 15v24l-3 12-6 14-4 6-8 1h-262l-5-8-2-10h-37l-5 14-3 4h-266l-5-2-7-12-5-14-2-11v-12l4-17 5-12 9-14 8-10 8-7 15-12 14-8 11-6-2-4-9-12-9-15-11-23-7-19-7-25-4-22-2-18-1-31-14 6-22 12-15 9-23 11-15 5-9 2-11-1-8-4-5-6-4-10v-14l4-14 10-18 10-13 9-10 14-14 8-7 13-11 28-22 12-9 13-10 14-12 8-7 8-9 8-13 5-12 2-8v-7l-1-3v-45l1-48 15-1 2-1 13-40v-2l-26 1-4-1-1-86v-267l2-2 234-32 133-18z" fill="#030405"/>
<path transform="translate(1588,474)" d="m0 0 4 1v493l-5 1-232 2-64 1-237 2h-21l-5-2-1-3v-412l4-2 53-8 89-13 400-58z" fill="#00AEF1"/>
<path transform="translate(1031,1024)" d="m0 0 332 2h228l1 1v492l-22-3-79-11-248-35-177-25-13-2 9-19 10-25 7-24 4-21 3-21 1-29 1-2 4 1 16 7 22 13 14 8 21 10 13 4h16l10-4 5-6 3-8v-18l-5-14-8-14-8-11-9-10-23-23-11-9-16-13-15-11-19-14-11-9-10-9-14-14-9-14-6-14-6-27-8-57z" fill="#00ADF0"/>
<path transform="translate(681,1158)" d="m0 0 16 4 9 2h13l5 5 11 13 12 14 14 15 13 11 15 9 8 2 10-1 13-7 15-13 11-11 7-8 10-10 13-17 2-2 21-1 9-3 5-2h5l13 12 15 16 10 11 14 19 12 20 8 15 10 25 5 17 5 24 3 24 1 18v11l-2 28-2 18-7 32-3 11-2 1-21-3h-25l-27 3-22 5-20 7-17 8-12 8-12 11-9 9-8 13-5 11-3 9-1 6-1 25-7 2-11 1-11-2-3-1-1-20-3-15-6-15-8-13-9-10-9-9-15-10-20-9-24-8-18-4-26-2h-21l-25 3-4-9-6-28-3-20-2-26v-20l2-26 5-29 7-24 8-21 8-16 9-16 11-16 9-12 22-24 15-14z" fill="#FDFDFD"/>
<path transform="translate(970,564)" d="m0 0h5l1 1v291l-1 33-2 8-3 4-24-24-17-13-21-14-21-10-25-9-25-6-14-2-13-1h-22l-27 3-28 7-24 9-17 8-19 12-13 10-13 11-6 5-7 8-10 11-8 10-10 15-9 15-15 30-28 1-4-1-1-86v-267l2-2 234-32 133-18z" fill="#00ADF0"/>
<path transform="translate(775,837)" d="m0 0h46l27 5 17 5 20 8 16 8 11 7 11 8 11 9 13 11 9 9 10 13 10 14 11 19 8 16 9 21 9 30 6 27 4 26 2 17 4 25 5 18 3 10 5 9 12 16 14 15 8 7 11 9 11 8 12 9 18 14 17 14 13 12 22 22 11 16 7 14 2 7-1 9-5 5-3 2h-7l-19-7-15-8-11-6-35-18-9-4-10-3-2-1h-8l-3 6-1 47-5 29-5 20-8 23-13 27-7 11-10 13-4 5h-2l-1-7 7-32 4-25 1-13v-43l-2-22-5-27-6-21-7-20-10-21-13-22-12-17-11-14-16-17-15-15 2-4 7-7 7-10 10-19 7-21 4-23v-22l-2-19-5-18-7-16-10-15-10-11-13-9-14-7-13-4-7-1h-16l-13 2-16 7-11 7-10 9-9 12-12 19h-3l-9-16-9-12-8-9-15-10-13-6-16-3h-17l-11 2-16 6-11 7-13 10-11 14-10 19-5 16-3 18v26l3 23 8 26 8 16 8 12 4 4v2l4 2 2 4-12 11-14 14-7 8-12 15-14 21-10 18-9 19-9 25-6 25-4 25-2 19v30l4 33 6 32 4 16v3l-5-1-7-8-7-10-8-13-10-21-8-23-5-19-4-26-1-9v-44l-3-5v-2l-11 2-17 6-26 13-17 9-18 10-14 6-6 2h-10l-4-4-1-2v-14l4-10 7-12 11-14 11-12 10-10 11-9 7-7 17-13 10-8 9-7 12-9 9-7 13-11 5-5h2l2-4 8-9 9-14 6-15 4-13 5-28 7-50 5-23 5-18 10-27 10-21 13-22 9-12 11-13 14-15 10-9 15-11 16-10 15-8 26-10 21-5z" fill="#5C6A77"/>
<path transform="translate(710,957)" d="m0 0h22l15 6 13 9 9 9 10 14 9 19 5 19 2 2h7l4-5 5-19 8-16 9-13 13-13 14-8 11-4h21l17 5 11 6 10 8 9 9 8 13 6 15 4 19 1 11v20l-3 20-5 16-7 16-8 12-4 5-12 9-12 6-9 2h-8l-2-14-6-11-8-7-12-6-16-5-7-3 1-2 9-3 5-5 6-9 4-12v-20l-4-12-6-9-7-6-10-3h-7l-9 4-7 6-4 7-4 13-1 4v13l5 15 7 11 7 5-1 2-12-2h-10l-14 1-5 1 5-5 6-5 4-6 4-13v-25l-5-12-5-7-8-5-7-2-11 1-8 4-6 7-6 12-2 12 1 15 3 10 7 11 8 6 7 1 1 2-27 9-11 7-8 8-5 10-1 10-1 2h-7l-12-3-12-7-12-11-7-10-8-16-5-16-4-19v-32l4-19 4-12 8-15 9-11 11-9 14-8z" fill="#FDFDFD"/>
<path transform="translate(957,1472)" d="m0 0h22l17 3 15 4 15 5 16 8 14 10 14 12 9 10 8 13 4 10 1 5v18l-2 10-3 10-6 2-159 1-86 1-3-3-4-23v-8l4-20 4-10 9-14 5-6h2v-2l13-10 16-9 21-8 19-5 13-2 3-1z" fill="#E9882F"/>
<path transform="translate(628,1472)" d="m0 0h14l14 1 9 2 15 2 17 5 26 11 16 10 14 14 8 13 5 14 2 19-1 17-4 13-4 1-88-1-158-1-3-4-4-11-1-5v-19l5-15 6-11 11-13 11-10 18-12 14-7 18-6 16-4 12-2z" fill="#EA882F"/>
<path transform="translate(779,1116)" d="m0 0h39l12 2 16 4 14 7 7 7 1 2v10l-3 7-8 11-9 11-12 13-15 15-16 11-6 3h-2v-2l-5-1-14-10-14-12-9-10-9-11-13-17-4-9v-6l5-8 8-7 12-5 16-4z" fill="#E9882F"/>
<path transform="translate(764,1038)" d="m0 0h7l6 5 4 9 1 6v9l-3 11-5 6-3 2h-6l-5-3-5-10-1-4v-15l3-8 5-7z" fill="#FEFEFE"/>
<path transform="translate(828,1037)" d="m0 0 6 1 5 5 4 8 1 14-2 10-3 6-6 5-4 1-6-3-4-6-2-6-1-14 3-12 5-7z" fill="#FEFEFE"/>
<path transform="translate(567,1018)" d="m0 0 1 3-6 36-4 32-4 21-2 6h-2l-1-3v-45l1-48 15-1z" fill="#08ABEA"/>
</svg>
